<svg width="1362" height="867" viewBox="0 0 1362 867" fill="none" xmlns="http://www.w3.org/2000/svg">
<g filter="url(#filter0_bdi_0_1)">
<g clip-path="url(#clip0_0_1)">
<rect x="126" y="12" width="1224" height="842" rx="55" fill="url(#paint0_linear_0_1)" fill-opacity="0.6" shape-rendering="crispEdges"/>
<path d="M159.674 79.6826V53.4303H165.225V75.1064H176.48V79.6826H159.674ZM180.053 79.6826V59.9934H185.513V79.6826H180.053ZM182.796 57.4553C181.984 57.4553 181.288 57.1861 180.706 56.6478C180.134 56.1008 179.848 55.4471 179.848 54.6865C179.848 53.9345 180.134 53.2893 180.706 52.7509C181.288 52.204 181.984 51.9305 182.796 51.9305C183.608 51.9305 184.3 52.204 184.872 52.7509C185.454 53.2893 185.744 53.9345 185.744 54.6865C185.744 55.4471 185.454 56.1008 184.872 56.6478C184.3 57.1861 183.608 57.4553 182.796 57.4553ZM195.348 68.2998V79.6826H189.888V59.9934H195.092V63.4672H195.323C195.759 62.3221 196.489 61.4162 197.515 60.7497C198.54 60.0746 199.784 59.737 201.245 59.737C202.612 59.737 203.804 60.0361 204.821 60.6343C205.838 61.2325 206.629 62.0871 207.193 63.198C207.757 64.3004 208.039 65.6164 208.039 67.1461V79.6826H202.578V68.1203C202.587 66.9154 202.279 65.9754 201.655 65.3002C201.031 64.6166 200.172 64.2748 199.079 64.2748C198.344 64.2748 197.694 64.4329 197.13 64.7491C196.575 65.0652 196.139 65.5267 195.823 66.1335C195.515 66.7316 195.357 67.4538 195.348 68.2998ZM217.29 74.0168L217.303 67.4666H218.098L224.405 59.9934H230.673L222.2 69.8893H220.905L217.29 74.0168ZM212.343 79.6826V53.4303H217.803V79.6826H212.343ZM224.648 79.6826L218.854 71.107L222.495 67.2487L231.045 79.6826H224.648ZM241.514 80.0672C239.489 80.0672 237.746 79.657 236.284 78.8366C234.832 78.0077 233.712 76.8369 232.926 75.3243C232.14 73.8032 231.747 72.0043 231.747 69.9277C231.747 67.9024 232.14 66.1249 232.926 64.5952C233.712 63.0656 234.819 61.8734 236.246 61.0189C237.682 60.1643 239.365 59.737 241.296 59.737C242.595 59.737 243.804 59.9464 244.924 60.3651C246.052 60.7753 247.035 61.3949 247.872 62.2238C248.718 63.0527 249.376 64.0953 249.846 65.3515C250.316 66.5992 250.551 68.0605 250.551 69.7355V71.2352H233.926V67.8511H245.411C245.411 67.0649 245.24 66.3685 244.898 65.7617C244.557 65.155 244.082 64.6807 243.475 64.3389C242.877 63.9885 242.181 63.8133 241.386 63.8133C240.557 63.8133 239.822 64.0056 239.181 64.3901C238.549 64.7661 238.053 65.2746 237.694 65.9155C237.335 66.5479 237.152 67.2529 237.143 68.0306V71.248C237.143 72.2222 237.323 73.064 237.682 73.7733C238.049 74.4826 238.566 75.0295 239.233 75.4141C239.899 75.7986 240.69 75.9909 241.604 75.9909C242.211 75.9909 242.766 75.9054 243.27 75.7345C243.775 75.5636 244.206 75.3072 244.565 74.9654C244.924 74.6236 245.197 74.2048 245.385 73.7092L250.436 74.0425C250.18 75.256 249.654 76.3156 248.859 77.2215C248.073 78.1188 247.056 78.8195 245.808 79.3237C244.569 79.8193 243.138 80.0672 241.514 80.0672ZM261.37 80.0031C259.875 80.0031 258.52 79.6185 257.307 78.8494C256.102 78.0718 255.145 76.9309 254.435 75.4269C253.735 73.9143 253.384 72.0599 253.384 69.8636C253.384 67.6076 253.747 65.7318 254.474 64.2363C255.2 62.7323 256.166 61.6085 257.371 60.865C258.584 60.113 259.913 59.737 261.357 59.737C262.46 59.737 263.378 59.925 264.113 60.301C264.857 60.6685 265.455 61.13 265.908 61.6854C266.369 62.2324 266.72 62.7707 266.959 63.3006H267.126V53.4303H272.573V79.6826H267.19V76.5293H266.959C266.703 77.0762 266.339 77.6188 265.869 78.1572C265.408 78.687 264.805 79.1271 264.062 79.4775C263.327 79.8279 262.43 80.0031 261.37 80.0031ZM263.101 75.6576C263.981 75.6576 264.724 75.4183 265.331 74.9398C265.946 74.4527 266.416 73.7733 266.741 72.9016C267.074 72.03 267.241 71.0088 267.241 69.838C267.241 68.6672 267.079 67.6503 266.754 66.7872C266.429 65.9241 265.959 65.2575 265.344 64.7875C264.729 64.3175 263.981 64.0825 263.101 64.0825C262.203 64.0825 261.447 64.326 260.832 64.8131C260.216 65.3002 259.751 65.9754 259.435 66.8385C259.118 67.7016 258.96 68.7014 258.96 69.838C258.96 70.9831 259.118 71.9958 259.435 72.876C259.759 73.7476 260.225 74.4313 260.832 74.9269C261.447 75.4141 262.203 75.6576 263.101 75.6576ZM282.716 53.4303V79.6826H277.166V53.4303H282.716ZM292.641 68.2998V79.6826H287.18V59.9934H292.385V63.4672H292.615C293.051 62.3221 293.782 61.4162 294.807 60.7497C295.833 60.0746 297.076 59.737 298.537 59.737C299.905 59.737 301.097 60.0361 302.114 60.6343C303.131 61.2325 303.921 62.0871 304.485 63.198C305.049 64.3004 305.331 65.6164 305.331 67.1461V79.6826H299.871V68.1203C299.879 66.9154 299.571 65.9754 298.948 65.3002C298.324 64.6166 297.465 64.2748 296.371 64.2748C295.636 64.2748 294.987 64.4329 294.423 64.7491C293.867 65.0652 293.431 65.5267 293.115 66.1335C292.808 66.7316 292.649 67.4538 292.641 68.2998Z" fill="white"/>
<g clip-path="url(#clip1_0_1)">
<rect x="158.402" y="115.5" width="1448" height="576" fill="url(#paint1_linear_0_1)"/>
<rect x="8.03799" y="-7.98909" width="690.645" height="464.166" rx="61.4374" transform="matrix(-0.999995 -0.00305072 -0.00305072 0.999995 1235.63 180.422)" stroke="#D0E8FF" stroke-width="16.0272"/>
<rect opacity="0.4" x="6.75607" y="-6.04598" width="915.645" height="612.555" rx="59.8347" transform="matrix(-0.998465 -0.0553823 -0.0553823 0.998465 1363.82 127.382)" stroke="#D0E8FF" stroke-width="12.8217"/>
<rect opacity="0.35" x="5.88603" y="-4.73675" width="1117.73" height="746.078" rx="58.7662" transform="matrix(-0.994198 -0.107562 -0.107562 0.994198 1484.12 96.5063)" stroke="#D0E8FF" stroke-width="10.6848"/>
<rect opacity="0.3" x="4.90069" y="-3.53777" width="1340.71" height="888.277" rx="57.6978" transform="matrix(-0.987207 -0.159447 -0.159447 0.987207 1624.27 59.3699)" stroke="#D0E8FF" stroke-width="8.54782"/>
<rect opacity="0.25" x="3.80935" y="-2.45733" width="1560.6" height="1038.83" rx="56.6293" transform="matrix(-0.977509 -0.210895 -0.210895 0.977509 1764.09 46.7513)" stroke="#D0E8FF" stroke-width="6.41086"/>
<g filter="url(#filter1_d_0_1)">
<path fill-rule="evenodd" clip-rule="evenodd" d="M1056.94 335.717C1056.94 331.562 1056.94 327.407 1056.91 323.251C1056.89 319.751 1056.85 316.251 1056.76 312.753C1056.55 305.127 1056.1 297.436 1054.75 289.895C1053.37 282.246 1051.12 275.127 1047.58 268.176C1044.1 261.345 1039.56 255.094 1034.14 249.674C1028.71 244.255 1022.46 239.713 1015.63 236.235C1008.67 232.695 1001.54 230.449 993.885 229.075C986.344 227.72 978.651 227.271 971.025 227.065C967.524 226.971 964.022 226.931 960.52 226.909C956.363 226.884 952.205 226.886 948.048 226.886L899.775 226.713H863.671L816.253 226.886C812.087 226.886 807.922 226.884 803.756 226.909C800.247 226.931 796.739 226.971 793.231 227.065C785.588 227.271 777.877 227.721 770.318 229.077C762.65 230.451 755.512 232.696 748.546 236.233C741.697 239.711 735.431 244.254 729.997 249.674C724.565 255.093 720.011 261.343 716.525 268.173C712.976 275.127 710.725 282.251 709.347 289.904C707.989 297.442 707.539 305.13 707.332 312.753C707.238 316.252 707.197 319.751 707.176 323.251C707.151 327.407 706.937 332.569 706.937 336.725L706.938 383.486L706.937 419.977L707.153 467.732C707.153 471.893 707.151 476.053 707.176 480.214C707.197 483.719 707.238 487.224 707.333 490.727C707.539 498.363 707.99 506.065 709.349 513.616C710.727 521.275 712.977 528.405 716.523 535.364C720.01 542.205 724.564 548.465 729.997 553.892C735.43 559.319 741.695 563.867 748.542 567.35C755.513 570.895 762.654 573.143 770.327 574.519C777.883 575.876 785.591 576.326 793.231 576.532C796.739 576.626 800.247 576.667 803.757 576.688C807.922 576.713 812.087 576.712 816.253 576.712L864.1 576.713H900.294L948.048 576.711C952.205 576.711 956.363 576.713 960.52 576.688C964.022 576.667 967.524 576.626 971.025 576.532C978.654 576.325 986.349 575.875 993.894 574.518C1001.55 573.141 1008.67 570.894 1015.62 567.351C1022.46 563.869 1028.71 559.32 1034.14 553.892C1039.56 548.465 1044.1 542.207 1047.58 535.367C1051.12 528.405 1053.37 521.272 1054.75 513.607C1056.1 506.059 1056.55 498.36 1056.76 490.727C1056.85 487.223 1056.89 483.719 1056.91 480.214C1056.94 476.053 1056.94 471.893 1056.94 467.732C1056.94 467.732 1056.93 420.82 1056.93 419.977V383.448C1056.93 382.825 1056.94 335.717 1056.94 335.717" fill="url(#paint2_linear_0_1)"/>
</g>
<mask id="mask0_0_1" style="mask-type:luminance" maskUnits="userSpaceOnUse" x="706" y="226" width="351" height="351">
<path fill-rule="evenodd" clip-rule="evenodd" d="M1056.94 335.717C1056.94 331.562 1056.94 327.407 1056.91 323.251C1056.89 319.751 1056.85 316.251 1056.76 312.753C1056.55 305.127 1056.1 297.436 1054.75 289.895C1053.37 282.246 1051.12 275.127 1047.58 268.176C1044.1 261.345 1039.56 255.094 1034.14 249.674C1028.71 244.255 1022.46 239.713 1015.63 236.235C1008.67 232.695 1001.54 230.449 993.885 229.075C986.344 227.72 978.651 227.271 971.025 227.065C967.524 226.971 964.022 226.931 960.52 226.909C956.363 226.884 952.205 226.886 948.048 226.886L899.775 226.713H863.671L816.253 226.886C812.087 226.886 807.922 226.884 803.756 226.909C800.247 226.931 796.739 226.971 793.231 227.065C785.588 227.271 777.877 227.721 770.318 229.077C762.65 230.451 755.512 232.696 748.546 236.233C741.697 239.711 735.431 244.254 729.997 249.674C724.565 255.093 720.011 261.343 716.525 268.173C712.976 275.127 710.725 282.251 709.347 289.904C707.989 297.442 707.539 305.13 707.332 312.753C707.238 316.252 707.197 319.751 707.176 323.251C707.151 327.407 706.937 332.569 706.937 336.725L706.938 383.486L706.937 419.977L707.153 467.732C707.153 471.893 707.151 476.053 707.176 480.214C707.197 483.719 707.238 487.224 707.333 490.727C707.539 498.363 707.99 506.065 709.349 513.616C710.727 521.275 712.977 528.405 716.523 535.364C720.01 542.205 724.564 548.465 729.997 553.892C735.43 559.319 741.695 563.867 748.542 567.35C755.513 570.895 762.654 573.143 770.327 574.519C777.883 575.876 785.591 576.326 793.231 576.532C796.739 576.626 800.247 576.667 803.757 576.688C807.922 576.713 812.087 576.712 816.253 576.712L864.1 576.713H900.294L948.048 576.711C952.205 576.711 956.363 576.713 960.52 576.688C964.022 576.667 967.524 576.626 971.025 576.532C978.654 576.325 986.349 575.875 993.894 574.518C1001.55 573.141 1008.67 570.894 1015.62 567.351C1022.46 563.869 1028.71 559.32 1034.14 553.892C1039.56 548.465 1044.1 542.207 1047.58 535.367C1051.12 528.405 1053.37 521.272 1054.75 513.607C1056.1 506.059 1056.55 498.36 1056.76 490.727C1056.85 487.223 1056.89 483.719 1056.91 480.214C1056.94 476.053 1056.94 471.893 1056.94 467.732C1056.94 467.732 1056.93 420.82 1056.93 419.977V383.448C1056.93 382.825 1056.94 335.717 1056.94 335.717" fill="white"/>
</mask>
<g mask="url(#mask0_0_1)">
<rect x="682.301" y="200.378" width="388.228" height="388.228" fill="url(#paint3_linear_0_1)"/>
<g filter="url(#filter2_b_0_1)">
<rect x="706.937" y="226.713" width="350" height="350" rx="126" fill="black" fill-opacity="0.01"/>
</g>
<g filter="url(#filter3_ii_0_1)">
<path fill-rule="evenodd" clip-rule="evenodd" d="M1056.94 335.717C1056.94 331.562 1056.94 327.407 1056.91 323.251C1056.89 319.751 1056.85 316.251 1056.76 312.753C1056.55 305.127 1056.1 297.436 1054.75 289.895C1053.37 282.246 1051.12 275.127 1047.58 268.176C1044.1 261.345 1039.56 255.094 1034.14 249.674C1028.71 244.255 1022.46 239.713 1015.63 236.235C1008.67 232.695 1001.54 230.449 993.885 229.075C986.344 227.72 978.651 227.271 971.025 227.065C967.524 226.971 964.022 226.931 960.52 226.909C956.363 226.884 952.205 226.886 948.048 226.886L899.775 226.713H863.671L816.253 226.886C812.087 226.886 807.922 226.884 803.756 226.909C800.247 226.931 796.739 226.971 793.231 227.065C785.588 227.271 777.877 227.721 770.318 229.077C762.65 230.451 755.512 232.696 748.546 236.233C741.697 239.711 735.431 244.254 729.997 249.674C724.565 255.093 720.011 261.343 716.525 268.173C712.976 275.127 710.725 282.251 709.347 289.904C707.989 297.442 707.539 305.13 707.332 312.753C707.238 316.252 707.197 319.751 707.176 323.251C707.151 327.407 706.937 332.569 706.937 336.725L706.938 383.486L706.937 419.977L707.153 467.732C707.153 471.893 707.151 476.053 707.176 480.214C707.197 483.719 707.238 487.224 707.333 490.727C707.539 498.363 707.99 506.065 709.349 513.616C710.727 521.275 712.977 528.405 716.523 535.364C720.01 542.205 724.564 548.465 729.997 553.892C735.43 559.319 741.695 563.867 748.542 567.35C755.513 570.895 762.654 573.143 770.327 574.519C777.883 575.876 785.591 576.326 793.231 576.532C796.739 576.626 800.247 576.667 803.757 576.688C807.922 576.713 812.087 576.712 816.253 576.712L864.1 576.713H900.294L948.048 576.711C952.205 576.711 956.363 576.713 960.52 576.688C964.022 576.667 967.524 576.626 971.025 576.532C978.654 576.325 986.349 575.875 993.894 574.518C1001.55 573.141 1008.67 570.894 1015.62 567.351C1022.46 563.869 1028.71 559.32 1034.14 553.892C1039.56 548.465 1044.1 542.207 1047.58 535.367C1051.12 528.405 1053.37 521.272 1054.75 513.607C1056.1 506.059 1056.55 498.36 1056.76 490.727C1056.85 487.223 1056.89 483.719 1056.91 480.214C1056.94 476.053 1056.94 471.893 1056.94 467.732C1056.94 467.732 1056.93 420.82 1056.93 419.977V383.448C1056.93 382.825 1056.94 335.717 1056.94 335.717" fill="url(#paint4_linear_0_1)" fill-opacity="0.01"/>
</g>
<g filter="url(#filter4_dddiii_0_1)">
<path d="M775.497 380.273C775.497 371.989 782.212 365.273 790.497 365.273H805.152C813.436 365.273 820.152 371.989 820.152 380.273V494.956C820.152 503.24 813.436 509.956 805.152 509.956H790.497C782.212 509.956 775.497 503.24 775.497 494.956V380.273ZM771.924 319.725C771.924 312.58 774.405 306.527 779.367 301.565C784.527 296.405 790.68 293.825 797.824 293.825C804.969 293.825 811.022 296.405 815.984 301.565C821.144 306.527 823.724 312.58 823.724 319.725C823.724 326.87 821.144 333.022 815.984 338.182C811.022 343.144 804.969 345.625 797.824 345.625C790.68 345.625 784.527 343.144 779.367 338.182C774.405 333.022 771.924 326.87 771.924 319.725Z" fill="#0A66C2"/>
<path d="M852.234 380.273C852.234 371.989 858.95 365.273 867.234 365.273H885.279C890.705 365.273 895.103 369.672 895.103 375.097V384.553C895.103 384.757 895.268 384.921 895.471 384.921V384.921C895.61 384.921 895.738 384.843 895.801 384.719C897.185 382.008 899.135 379.297 901.653 376.586C904.233 373.807 907.309 371.326 910.881 369.143C914.454 366.96 918.522 365.174 923.087 363.785C927.652 362.395 932.613 361.701 937.972 361.701C949.285 361.701 958.414 363.487 965.361 367.059C972.307 370.433 977.666 375.197 981.437 381.349C985.406 387.502 988.085 394.746 989.475 403.081C990.864 411.417 991.558 420.447 991.558 430.172V494.956C991.558 503.24 984.843 509.956 976.558 509.956H961.903C953.619 509.956 946.903 503.24 946.903 494.956V439.103C946.903 434.935 946.705 430.668 946.308 426.302C946.109 421.737 945.216 417.569 943.628 413.799C942.239 410.028 939.957 406.951 936.781 404.57C933.804 402.188 929.438 400.997 923.682 400.997C917.927 400.997 913.263 402.089 909.69 404.272C906.118 406.257 903.339 409.035 901.355 412.608C899.569 415.982 898.378 419.852 897.782 424.218C897.187 428.584 896.889 433.149 896.889 437.912V494.956C896.889 503.24 890.174 509.956 881.889 509.956H867.234C858.95 509.956 852.234 503.24 852.234 494.956V380.273Z" fill="#0A66C2"/>
</g>
</g>
</g>
</g>
</g>
<g filter="url(#filter5_bd_0_1)">
<rect x="20" y="280" width="69.12" height="365.76" rx="34.56" fill="url(#paint5_linear_0_1)" shape-rendering="crispEdges"/>
<circle cx="56" cy="592.201" r="23" fill="#8A8882"/>
<path d="M48.2324 587.258C48.2324 586.43 47.5609 585.758 46.7324 585.758C45.904 585.758 45.2324 586.43 45.2324 587.258H48.2324ZM46.7324 597.938L48.232 597.973C48.2323 597.961 48.2324 597.949 48.2324 597.938H46.7324ZM51.7801 603.235L51.7429 604.735C51.7553 604.735 51.7677 604.735 51.7801 604.735L51.7801 603.235ZM52.6209 603.235V604.735C53.4493 604.735 54.1209 604.064 54.1209 603.235H52.6209ZM52.6209 599.703H54.1209C54.1209 599.691 54.1207 599.68 54.1204 599.668L52.6209 599.703ZM55.9854 596.172L56.0229 594.673C55.9979 594.672 55.9729 594.672 55.948 594.673L55.9854 596.172ZM59.35 599.705L57.8504 599.669C57.8502 599.681 57.85 599.693 57.85 599.705H59.35ZM59.35 603.235H57.85C57.85 604.064 58.5216 604.735 59.35 604.735V603.235ZM60.1908 603.235V604.735C60.2033 604.735 60.2159 604.735 60.2284 604.735L60.1908 603.235ZM65.2368 597.938H63.7368C63.7368 597.949 63.737 597.961 63.7373 597.973L65.2368 597.938ZM66.7368 587.258C66.7368 586.43 66.0653 585.758 65.2368 585.758C64.4084 585.758 63.7368 586.43 63.7368 587.258H66.7368ZM41.6209 589.251C40.9608 589.752 40.8313 590.693 41.3317 591.353C41.8322 592.013 42.7731 592.143 43.4333 591.642L41.6209 589.251ZM54.0458 581.715L53.1461 580.515L53.1397 580.519L54.0458 581.715ZM57.9266 581.715L58.8326 580.519L58.8264 580.515L57.9266 581.715ZM64.3324 588.452C64.9926 588.952 65.9335 588.823 66.4339 588.162C66.9343 587.502 66.8047 586.561 66.1445 586.061L64.3324 588.452ZM66.145 586.061C65.4851 585.561 64.5441 585.69 64.0434 586.35C63.5427 587.01 63.6718 587.951 64.3318 588.451L66.145 586.061ZM68.5372 591.642C69.1971 592.143 70.1381 592.013 70.6388 591.353C71.1395 590.693 71.0104 589.752 70.3504 589.252L68.5372 591.642ZM45.2324 587.258V597.938H48.2324V587.258H45.2324ZM45.2328 597.902C45.1461 601.586 48.0594 604.644 51.7429 604.735L51.8173 601.736C49.7887 601.686 48.1842 600.002 48.232 597.973L45.2328 597.902ZM51.7801 604.735H52.6209V601.735H51.7801V604.735ZM54.1209 603.235V599.703H51.1209V603.235H54.1209ZM54.1204 599.668C54.0954 598.592 54.9466 597.699 56.0229 597.672L55.948 594.673C53.2174 594.741 51.0578 597.007 51.1213 599.738L54.1204 599.668ZM55.948 597.672C57.0246 597.699 57.876 598.592 57.8504 599.669L60.8496 599.74C60.9144 597.009 58.7543 594.741 56.0229 594.673L55.948 597.672ZM57.85 599.705V603.235H60.85V599.705H57.85ZM59.35 604.735H60.1908V601.735H59.35V604.735ZM60.2284 604.735C63.9111 604.642 66.8232 601.585 66.7364 597.902L63.7373 597.973C63.7851 600.001 62.1813 601.685 60.1531 601.736L60.2284 604.735ZM66.7368 597.938V587.258H63.7368V597.938H66.7368ZM43.4333 591.642L54.952 582.91L53.1397 580.519L41.6209 589.251L43.4333 591.642ZM54.9456 582.915C55.5623 582.453 56.4101 582.453 57.0268 582.915L58.8264 580.515C57.1432 579.253 54.8293 579.253 53.1461 580.515L54.9456 582.915ZM57.0206 582.91L64.3324 588.452L66.1445 586.061L58.8326 580.519L57.0206 582.91ZM64.3318 588.451L68.5372 591.642L70.3504 589.252L66.145 586.061L64.3318 588.451Z" fill="#D3D3D4"/>
<path fill-rule="evenodd" clip-rule="evenodd" d="M56.0001 512.568C56.0001 514.608 54.3463 516.262 52.3062 516.262C50.2661 516.262 48.6123 514.608 48.6123 512.568C48.6123 510.528 50.2661 508.874 52.3062 508.874C54.3463 508.874 56.0001 510.528 56.0001 512.568Z" stroke="#D3D3D4" stroke-width="3" stroke-linecap="round" stroke-linejoin="round"/>
<path fill-rule="evenodd" clip-rule="evenodd" d="M59.694 525.868C59.694 528.718 56.3864 531.041 52.3046 531.041C48.2227 531.041 44.9167 528.725 44.9167 525.868C44.9167 523.012 48.2243 520.697 52.3062 520.697C56.388 520.697 59.694 523.012 59.694 525.868Z" stroke="#D3D3D4" stroke-width="3" stroke-linecap="round" stroke-linejoin="round"/>
<path fill-rule="evenodd" clip-rule="evenodd" d="M63.8201 516.017C63.8201 517.241 62.8276 518.233 61.6034 518.233C60.3792 518.233 59.3867 517.241 59.3867 516.017C59.3867 514.792 60.3792 513.8 61.6034 513.8C62.1913 513.8 62.7551 514.034 63.1708 514.449C63.5865 514.865 63.8201 515.429 63.8201 516.017Z" stroke="#D3D3D4" stroke-width="3" stroke-linecap="round" stroke-linejoin="round"/>
<path d="M62.6501 529.564C64.8886 529.747 66.8612 528.103 67.0835 525.868C66.8604 523.634 64.888 521.99 62.6501 522.174" stroke="#D3D3D4" stroke-width="3" stroke-linecap="round" stroke-linejoin="round"/>
<path fill-rule="evenodd" clip-rule="evenodd" d="M44 393.379C44.0196 395.098 44.7213 396.738 45.9506 397.94C47.1799 399.141 48.8362 399.805 50.555 399.785H53.7312C54.5948 399.786 55.4207 400.139 56.0175 400.763L57.7101 402.534C57.9778 402.805 58.3431 402.958 58.7242 402.958C59.1053 402.958 59.4706 402.805 59.7383 402.534L62.3667 399.785L63.2296 398.822C63.3885 398.65 63.5617 398.491 63.7473 398.347C65.2719 397.149 66.1634 395.318 66.1667 393.379V385.605C66.1241 382.027 63.1897 379.16 59.6117 379.202H50.555C46.977 379.16 44.0426 382.027 44 385.605V393.379Z" stroke="#D3D3D4" stroke-width="2.4" stroke-linecap="round" stroke-linejoin="round"/>
<path fill-rule="evenodd" clip-rule="evenodd" d="M47.1667 389.493C47.1667 388.619 47.8756 387.91 48.7501 387.91C49.6245 387.91 50.3334 388.619 50.3334 389.493C50.3334 390.368 49.6245 391.077 48.7501 391.077C48.3302 391.077 47.9274 390.91 47.6305 390.613C47.3336 390.316 47.1667 389.913 47.1667 389.493Z" stroke="#D3D3D4" stroke-width="2.4" stroke-linecap="round" stroke-linejoin="round"/>
<path fill-rule="evenodd" clip-rule="evenodd" d="M53.5 389.493C53.5 388.619 54.2089 387.91 55.0833 387.91C55.9578 387.91 56.6667 388.619 56.6667 389.493C56.6667 390.368 55.9578 391.077 55.0833 391.077C54.2089 391.077 53.5 390.368 53.5 389.493Z" stroke="#D3D3D4" stroke-width="2.4" stroke-linecap="round" stroke-linejoin="round"/>
<path fill-rule="evenodd" clip-rule="evenodd" d="M59.8333 389.493C59.8333 388.619 60.5421 387.91 61.4166 387.91C62.291 387.91 62.9999 388.619 62.9999 389.493C62.9999 390.368 62.291 391.077 61.4166 391.077C60.5421 391.077 59.8333 390.368 59.8333 389.493Z" stroke="#D3D3D4" stroke-width="2.4" stroke-linecap="round" stroke-linejoin="round"/>
<path d="M49.7499 445.624C49.7499 446.453 50.4215 447.124 51.2499 447.124C52.0783 447.124 52.7499 446.453 52.7499 445.624H49.7499ZM59.2499 445.624C59.2499 446.453 59.9215 447.124 60.7499 447.124C61.5783 447.124 62.2499 446.453 62.2499 445.624H59.2499ZM51.307 447.123C52.1348 447.092 52.7804 446.395 52.7488 445.567C52.7173 444.739 52.0207 444.094 51.1928 444.125L51.307 447.123ZM43.4857 450.922C43.3508 451.739 43.9042 452.511 44.7215 452.646C45.5389 452.781 46.3108 452.227 46.4457 451.41L43.4857 450.922ZM51.2499 444.124C50.4215 444.124 49.7499 444.796 49.7499 445.624C49.7499 446.453 50.4215 447.124 51.2499 447.124V444.124ZM60.7499 447.124C61.5783 447.124 62.2499 446.453 62.2499 445.624C62.2499 444.796 61.5783 444.124 60.7499 444.124V447.124ZM52.6577 454.809C53.4804 454.906 54.226 454.318 54.3229 453.495C54.4199 452.672 53.8315 451.927 53.0088 451.83L52.6577 454.809ZM45.5711 449.8C44.8132 449.466 43.9277 449.809 43.5933 450.567C43.2589 451.325 43.6023 452.21 44.3602 452.545L45.5711 449.8ZM54.3333 453.319C54.3333 452.491 53.6617 451.819 52.8333 451.819C52.0048 451.819 51.3333 452.491 51.3333 453.319H54.3333ZM51.3333 456.692C51.3333 457.52 52.0048 458.192 52.8333 458.192C53.6617 458.192 54.3333 457.52 54.3333 456.692H51.3333ZM53.0141 451.83C52.1918 451.73 51.4441 452.316 51.3442 453.138C51.2443 453.961 51.83 454.708 52.6524 454.808L53.0141 451.83ZM55.9999 453.525L55.9865 455.025C55.9952 455.025 56.0039 455.025 56.0126 455.025L55.9999 453.525ZM59.3467 454.81C60.1692 454.71 60.7552 453.963 60.6557 453.141C60.5562 452.318 59.8089 451.732 58.9864 451.832L59.3467 454.81ZM44.3511 452.541C45.1068 452.88 45.9945 452.543 46.334 451.787C46.6734 451.031 46.336 450.143 45.5803 449.804L44.3511 452.541ZM44.0592 449.046C43.3343 448.645 42.4216 448.908 42.0206 449.632C41.6197 450.357 41.8823 451.27 42.6073 451.671L44.0592 449.046ZM46.4533 451.365C46.5595 450.543 45.9796 449.791 45.158 449.685C44.3364 449.578 43.5843 450.158 43.478 450.98L46.4533 451.365ZM44.9166 451.942L46.4166 451.942L46.4166 451.94L44.9166 451.942ZM44.9166 458.275H43.4166C43.4166 458.294 43.417 458.313 43.4177 458.333L44.9166 458.275ZM51.7376 464.608V463.108C51.7197 463.108 51.7018 463.109 51.6839 463.109L51.7376 464.608ZM60.2638 464.608L60.3172 463.109C60.2994 463.109 60.2816 463.108 60.2638 463.108V464.608ZM67.0832 458.275L68.5821 458.333C68.5829 458.313 68.5832 458.294 68.5832 458.275H67.0832ZM67.0832 451.942L65.5832 451.94V451.942H67.0832ZM68.5218 450.98C68.4156 450.158 67.6634 449.578 66.8418 449.685C66.0202 449.791 65.4403 450.543 65.5465 451.365L68.5218 450.98ZM60.807 444.125C59.9792 444.094 59.2825 444.739 59.251 445.567C59.2195 446.395 59.865 447.092 60.6928 447.123L60.807 444.125ZM65.5542 451.41C65.689 452.227 66.4609 452.781 67.2783 452.646C68.0957 452.511 68.649 451.739 68.5142 450.922L65.5542 451.41ZM58.991 451.83C58.1683 451.927 57.5799 452.672 57.6769 453.495C57.7739 454.318 58.5194 454.906 59.3421 454.809L58.991 451.83ZM67.6396 452.545C68.3976 452.21 68.7409 451.325 68.4065 450.567C68.0721 449.809 67.1866 449.466 66.4287 449.8L67.6396 452.545ZM60.6666 453.319C60.6666 452.491 59.995 451.819 59.1666 451.819C58.3382 451.819 57.6666 452.491 57.6666 453.319H60.6666ZM57.6666 456.692C57.6666 457.52 58.3382 458.192 59.1666 458.192C59.995 458.192 60.6666 457.52 60.6666 456.692H57.6666ZM66.4196 449.804C65.6639 450.143 65.3264 451.031 65.6659 451.787C66.0053 452.543 66.8931 452.88 67.6488 452.541L66.4196 449.804ZM69.3925 451.671C70.1175 451.27 70.3801 450.357 69.9792 449.632C69.5783 448.908 68.6656 448.645 67.9406 449.046L69.3925 451.671ZM52.7499 445.624C52.7499 443.829 54.205 442.374 55.9999 442.374V439.374C52.5481 439.374 49.7499 442.172 49.7499 445.624H52.7499ZM55.9999 442.374C57.7948 442.374 59.2499 443.829 59.2499 445.624H62.2499C62.2499 442.172 59.4517 439.374 55.9999 439.374V442.374ZM51.1928 444.125C47.3354 444.272 44.1139 447.113 43.4857 450.922L46.4457 451.41C46.842 449.008 48.8739 447.216 51.307 447.123L51.1928 444.125ZM51.2499 447.124H60.7499V444.124H51.2499V447.124ZM53.0088 451.83C50.4424 451.527 47.9355 450.843 45.5711 449.8L44.3602 452.545C46.9979 453.708 49.7945 454.472 52.6577 454.809L53.0088 451.83ZM51.3333 453.319V456.692H54.3333V453.319H51.3333ZM52.6524 454.808C53.7588 454.943 54.872 455.015 55.9865 455.025L56.0133 452.025C55.0107 452.016 54.0094 451.951 53.0141 451.83L52.6524 454.808ZM56.0126 455.025C57.1271 455.016 58.2402 454.944 59.3467 454.81L58.9864 451.832C57.9911 451.952 56.9898 452.017 55.9873 452.025L56.0126 455.025ZM45.5803 449.804C45.0449 449.563 44.538 449.311 44.0592 449.046L42.6073 451.671C43.1629 451.978 43.7443 452.268 44.3511 452.541L45.5803 449.804ZM43.478 450.98C43.4367 451.299 43.4162 451.621 43.4166 451.944L46.4166 451.94C46.4164 451.748 46.4286 451.555 46.4533 451.365L43.478 450.98ZM43.4166 451.942V458.275H46.4166V451.942H43.4166ZM43.4177 458.333C43.5884 462.789 47.3341 466.267 51.7913 466.107L51.6839 463.109C48.8795 463.21 46.5229 461.022 46.4155 458.218L43.4177 458.333ZM51.7376 466.108H60.2638V463.108H51.7376V466.108ZM60.2105 466.107C64.667 466.266 68.4114 462.789 68.5821 458.333L65.5843 458.218C65.4769 461.021 63.121 463.209 60.3172 463.109L60.2105 466.107ZM68.5832 458.275V451.942H65.5832V458.275H68.5832ZM68.5832 451.944C68.5836 451.621 68.5631 451.299 68.5218 450.98L65.5465 451.365C65.5712 451.555 65.5835 451.748 65.5833 451.94L68.5832 451.944ZM60.6928 447.123C63.1259 447.216 65.1579 449.008 65.5542 451.41L68.5142 450.922C67.8859 447.113 64.6644 444.272 60.807 444.125L60.6928 447.123ZM59.3421 454.809C62.2053 454.472 65.002 453.708 67.6396 452.545L66.4287 449.8C64.0644 450.843 61.5575 451.527 58.991 451.83L59.3421 454.809ZM57.6666 453.319V456.692H60.6666V453.319H57.6666ZM67.6488 452.541C68.2555 452.268 68.8369 451.978 69.3925 451.671L67.9406 449.046C67.4618 449.311 66.955 449.563 66.4196 449.804L67.6488 452.541Z" fill="#D3D3D4"/>
<path fill-rule="evenodd" clip-rule="evenodd" d="M46.252 330.934C46.0683 325.914 49.9815 321.691 55.0015 321.493C60.0215 321.691 63.9347 325.914 63.751 330.934C63.751 333.02 66.0167 335.051 66.0832 337.141C66.0832 337.171 66.0832 337.2 66.0832 337.23C66.1323 338.569 65.0883 339.695 63.7494 339.747H58.6954C58.7001 340.773 58.3134 341.762 57.614 342.513C56.9416 343.243 55.9942 343.659 55.0015 343.659C54.0088 343.659 53.0614 343.243 52.389 342.513C51.6896 341.762 51.3029 340.773 51.3076 339.747H46.252C44.9131 339.695 43.8691 338.569 43.9182 337.23C43.9182 337.2 43.9182 337.171 43.9182 337.141C43.9862 335.057 46.252 333.021 46.252 330.934Z" stroke="#D3D3D4" stroke-width="3" stroke-linecap="round" stroke-linejoin="round"/>
<path d="M51.3076 338.247C50.4792 338.247 49.8076 338.919 49.8076 339.747C49.8076 340.576 50.4792 341.247 51.3076 341.247V338.247ZM58.6955 341.247C59.5239 341.247 60.1955 340.576 60.1955 339.747C60.1955 338.919 59.5239 338.247 58.6955 338.247V341.247ZM56.5849 319.826C57.4133 319.826 58.0849 319.155 58.0849 318.326C58.0849 317.498 57.4133 316.826 56.5849 316.826V319.826ZM53.4182 316.826C52.5898 316.826 51.9182 317.498 51.9182 318.326C51.9182 319.155 52.5898 319.826 53.4182 319.826V316.826ZM51.3076 341.247H58.6955V338.247H51.3076V341.247ZM56.5849 316.826H53.4182V319.826H56.5849V316.826Z" fill="#D3D3D4"/>
<rect x="20.96" y="280.96" width="67.2" height="363.84" rx="33.6" stroke="url(#paint6_linear_0_1)" stroke-opacity="0.4" stroke-width="1.92" shape-rendering="crispEdges"/>
</g>
<defs>
<filter id="filter0_bdi_0_1" x="66" y="-48" width="1344" height="962" filterUnits="userSpaceOnUse" color-interpolation-filters="sRGB">
<feFlood flood-opacity="0" result="BackgroundImageFix"/>
<feGaussianBlur in="BackgroundImageFix" stdDeviation="30"/>
<feComposite in2="SourceAlpha" operator="in" result="effect1_backgroundBlur_0_1"/>
<feColorMatrix in="SourceAlpha" type="matrix" values="0 0 0 0 0 0 0 0 0 0 0 0 0 0 0 0 0 0 127 0" result="hardAlpha"/>
<feMorphology radius="0.500837" operator="erode" in="SourceAlpha" result="effect2_dropShadow_0_1"/>
<feOffset dy="0.500837"/>
<feGaussianBlur stdDeviation="6.01004"/>
<feComposite in2="hardAlpha" operator="out"/>
<feColorMatrix type="matrix" values="0 0 0 0 0 0 0 0 0 0 0 0 0 0 0 0 0 0 0.18 0"/>
<feBlend mode="normal" in2="effect1_backgroundBlur_0_1" result="effect2_dropShadow_0_1"/>
<feBlend mode="normal" in="SourceGraphic" in2="effect2_dropShadow_0_1" result="shape"/>
<feColorMatrix in="SourceAlpha" type="matrix" values="0 0 0 0 0 0 0 0 0 0 0 0 0 0 0 0 0 0 127 0" result="hardAlpha"/>
<feOffset dy="1.12669"/>
<feGaussianBlur stdDeviation="1.69004"/>
<feComposite in2="hardAlpha" operator="arithmetic" k2="-1" k3="1"/>
<feColorMatrix type="matrix" values="0 0 0 0 1 0 0 0 0 1 0 0 0 0 1 0 0 0 0.25 0"/>
<feBlend mode="normal" in2="shape" result="effect3_innerShadow_0_1"/>
</filter>
<filter id="filter1_d_0_1" x="696.937" y="226.713" width="370" height="370" filterUnits="userSpaceOnUse" color-interpolation-filters="sRGB">
<feFlood flood-opacity="0" result="BackgroundImageFix"/>
<feColorMatrix in="SourceAlpha" type="matrix" values="0 0 0 0 0 0 0 0 0 0 0 0 0 0 0 0 0 0 127 0" result="hardAlpha"/>
<feOffset dy="10"/>
<feGaussianBlur stdDeviation="5"/>
<feColorMatrix type="matrix" values="0 0 0 0 0 0 0 0 0 0 0 0 0 0 0 0 0 0 0.3 0"/>
<feBlend mode="normal" in2="BackgroundImageFix" result="effect1_dropShadow_0_1"/>
<feBlend mode="normal" in="SourceGraphic" in2="effect1_dropShadow_0_1" result="shape"/>
</filter>
<filter id="filter2_b_0_1" x="696.064" y="215.84" width="371.746" height="371.746" filterUnits="userSpaceOnUse" color-interpolation-filters="sRGB">
<feFlood flood-opacity="0" result="BackgroundImageFix"/>
<feGaussianBlur in="BackgroundImageFix" stdDeviation="5.43656"/>
<feComposite in2="SourceAlpha" operator="in" result="effect1_backgroundBlur_0_1"/>
<feBlend mode="normal" in="SourceGraphic" in2="effect1_backgroundBlur_0_1" result="shape"/>
</filter>
<filter id="filter3_ii_0_1" x="706.937" y="206.713" width="350" height="384" filterUnits="userSpaceOnUse" color-interpolation-filters="sRGB">
<feFlood flood-opacity="0" result="BackgroundImageFix"/>
<feBlend mode="normal" in="SourceGraphic" in2="BackgroundImageFix" result="shape"/>
<feColorMatrix in="SourceAlpha" type="matrix" values="0 0 0 0 0 0 0 0 0 0 0 0 0 0 0 0 0 0 127 0" result="hardAlpha"/>
<feOffset dy="-20"/>
<feGaussianBlur stdDeviation="20"/>
<feComposite in2="hardAlpha" operator="arithmetic" k2="-1" k3="1"/>
<feColorMatrix type="matrix" values="0 0 0 0 0 0 0 0 0 0 0 0 0 0 0 0 0 0 0.2 0"/>
<feBlend mode="normal" in2="shape" result="effect1_innerShadow_0_1"/>
<feColorMatrix in="SourceAlpha" type="matrix" values="0 0 0 0 0 0 0 0 0 0 0 0 0 0 0 0 0 0 127 0" result="hardAlpha"/>
<feOffset dy="14"/>
<feGaussianBlur stdDeviation="32"/>
<feComposite in2="hardAlpha" operator="arithmetic" k2="-1" k3="1"/>
<feColorMatrix type="matrix" values="0 0 0 0 0.304167 0 0 0 0 0.71194 0 0 0 0 1 0 0 0 0.1 0"/>
<feBlend mode="normal" in2="effect1_innerShadow_0_1" result="effect2_innerShadow_0_1"/>
</filter>
<filter id="filter4_dddiii_0_1" x="669.924" y="197.825" width="435.634" height="432.132" filterUnits="userSpaceOnUse" color-interpolation-filters="sRGB">
<feFlood flood-opacity="0" result="BackgroundImageFix"/>
<feColorMatrix in="SourceAlpha" type="matrix" values="0 0 0 0 0 0 0 0 0 0 0 0 0 0 0 0 0 0 127 0" result="hardAlpha"/>
<feOffset dx="6" dy="22"/>
<feGaussianBlur stdDeviation="20"/>
<feColorMatrix type="matrix" values="0 0 0 0 0.541667 0 0 0 0 0.770833 0 0 0 0 1 0 0 0 0.1 0"/>
<feBlend mode="normal" in2="BackgroundImageFix" result="effect1_dropShadow_0_1"/>
<feColorMatrix in="SourceAlpha" type="matrix" values="0 0 0 0 0 0 0 0 0 0 0 0 0 0 0 0 0 0 127 0" result="hardAlpha"/>
<feOffset dx="6" dy="12"/>
<feGaussianBlur stdDeviation="54"/>
<feColorMatrix type="matrix" values="0 0 0 0 0.541667 0 0 0 0 0.770833 0 0 0 0 1 0 0 0 0.3 0"/>
<feBlend mode="normal" in2="effect1_dropShadow_0_1" result="effect2_dropShadow_0_1"/>
<feColorMatrix in="SourceAlpha" type="matrix" values="0 0 0 0 0 0 0 0 0 0 0 0 0 0 0 0 0 0 127 0" result="hardAlpha"/>
<feOffset dy="17"/>
<feGaussianBlur stdDeviation="25"/>
<feColorMatrix type="matrix" values="0 0 0 0 0 0 0 0 0 0.105598 0 0 0 0 0.2125 0 0 0 0.2 0"/>
<feBlend mode="normal" in2="effect2_dropShadow_0_1" result="effect3_dropShadow_0_1"/>
<feBlend mode="normal" in="SourceGraphic" in2="effect3_dropShadow_0_1" result="shape"/>
<feColorMatrix in="SourceAlpha" type="matrix" values="0 0 0 0 0 0 0 0 0 0 0 0 0 0 0 0 0 0 127 0" result="hardAlpha"/>
<feOffset dy="2"/>
<feGaussianBlur stdDeviation="12"/>
<feComposite in2="hardAlpha" operator="arithmetic" k2="-1" k3="1"/>
<feColorMatrix type="matrix" values="0 0 0 0 1 0 0 0 0 1 0 0 0 0 1 0 0 0 0.25 0"/>
<feBlend mode="normal" in2="shape" result="effect4_innerShadow_0_1"/>
<feColorMatrix in="SourceAlpha" type="matrix" values="0 0 0 0 0 0 0 0 0 0 0 0 0 0 0 0 0 0 127 0" result="hardAlpha"/>
<feOffset dx="-24" dy="-10"/>
<feGaussianBlur stdDeviation="15"/>
<feComposite in2="hardAlpha" operator="arithmetic" k2="-1" k3="1"/>
<feColorMatrix type="matrix" values="0 0 0 0 0 0 0 0 0 0 0 0 0 0 0 0 0 0 0.16 0"/>
<feBlend mode="normal" in2="effect4_innerShadow_0_1" result="effect5_innerShadow_0_1"/>
<feColorMatrix in="SourceAlpha" type="matrix" values="0 0 0 0 0 0 0 0 0 0 0 0 0 0 0 0 0 0 127 0" result="hardAlpha"/>
<feOffset dx="8" dy="4"/>
<feGaussianBlur stdDeviation="20"/>
<feComposite in2="hardAlpha" operator="arithmetic" k2="-1" k3="1"/>
<feColorMatrix type="matrix" values="0 0 0 0 1 0 0 0 0 1 0 0 0 0 1 0 0 0 0.35 0"/>
<feBlend mode="normal" in2="effect5_innerShadow_0_1" result="effect6_innerShadow_0_1"/>
</filter>
<filter id="filter5_bd_0_1" x="-0.483412" y="259.517" width="110.087" height="406.727" filterUnits="userSpaceOnUse" color-interpolation-filters="sRGB">
<feFlood flood-opacity="0" result="BackgroundImageFix"/>
<feGaussianBlur in="BackgroundImageFix" stdDeviation="10.2417"/>
<feComposite in2="SourceAlpha" operator="in" result="effect1_backgroundBlur_0_1"/>
<feColorMatrix in="SourceAlpha" type="matrix" values="0 0 0 0 0 0 0 0 0 0 0 0 0 0 0 0 0 0 127 0" result="hardAlpha"/>
<feMorphology radius="0.853476" operator="erode" in="SourceAlpha" result="effect2_dropShadow_0_1"/>
<feOffset dy="0.853476"/>
<feGaussianBlur stdDeviation="10.2417"/>
<feComposite in2="hardAlpha" operator="out"/>
<feColorMatrix type="matrix" values="0 0 0 0 0 0 0 0 0 0 0 0 0 0 0 0 0 0 0.18 0"/>
<feBlend mode="normal" in2="effect1_backgroundBlur_0_1" result="effect2_dropShadow_0_1"/>
<feBlend mode="normal" in="SourceGraphic" in2="effect2_dropShadow_0_1" result="shape"/>
</filter>
<linearGradient id="paint0_linear_0_1" x1="126" y1="-40.3561" x2="751.548" y2="1164.67" gradientUnits="userSpaceOnUse">
<stop stop-color="white" stop-opacity="0.37"/>
<stop offset="0.953125" stop-color="#727272" stop-opacity="0.42"/>
</linearGradient>
<linearGradient id="paint1_linear_0_1" x1="1642.9" y1="115.5" x2="52.9023" y2="798" gradientUnits="userSpaceOnUse">
<stop stop-color="#2073C7"/>
<stop offset="1" stop-color="#5593D1"/>
</linearGradient>
<linearGradient id="paint2_linear_0_1" x1="587.521" y1="226.713" x2="587.521" y2="815.546" gradientUnits="userSpaceOnUse">
<stop stop-color="white"/>
<stop offset="0.489516" stop-color="#EFEFEF"/>
<stop offset="1" stop-color="#C0C0C0"/>
</linearGradient>
<linearGradient id="paint3_linear_0_1" x1="1058.8" y1="606.797" x2="1058.8" y2="242.035" gradientUnits="userSpaceOnUse">
<stop stop-color="#F6F3F3"/>
<stop offset="1" stop-color="white"/>
</linearGradient>
<linearGradient id="paint4_linear_0_1" x1="587.521" y1="226.713" x2="587.521" y2="815.546" gradientUnits="userSpaceOnUse">
<stop stop-color="white"/>
<stop offset="0.489516" stop-color="#EFEFEF"/>
<stop offset="1" stop-color="#C0C0C0"/>
</linearGradient>
<linearGradient id="paint5_linear_0_1" x1="20" y1="257.257" x2="176.59" y2="296.47" gradientUnits="userSpaceOnUse">
<stop stop-color="#323030" stop-opacity="0.37"/>
<stop offset="0.953125" stop-color="#4A4A4A" stop-opacity="0.42"/>
</linearGradient>
<linearGradient id="paint6_linear_0_1" x1="23.0444" y1="280" x2="113.202" y2="286.452" gradientUnits="userSpaceOnUse">
<stop stop-color="white"/>
<stop offset="0.21206" stop-color="white" stop-opacity="0"/>
<stop offset="0.489583" stop-color="white" stop-opacity="0"/>
<stop offset="0.775473" stop-color="white" stop-opacity="0"/>
<stop offset="1" stop-color="white"/>
</linearGradient>
<clipPath id="clip0_0_1">
<rect x="126" y="12" width="1224" height="842" rx="55" fill="white"/>
</clipPath>
<clipPath id="clip1_0_1">
<rect x="158" y="116" width="1448" height="576" rx="22" fill="white"/>
</clipPath>
</defs>
</svg>

